<?xml version="1.0" encoding="utf-8"?>
<!-- Generator: Adobe Illustrator 16.0.0, SVG Export Plug-In . SVG Version: 6.00 Build 0)  -->
<!DOCTYPE svg PUBLIC "-//W3C//DTD SVG 1.1//EN" "http://www.w3.org/Graphics/SVG/1.1/DTD/svg11.dtd">
<svg version="1.1" id="Layer_1" xmlns="http://www.w3.org/2000/svg" xmlns:xlink="http://www.w3.org/1999/xlink" x="0px" y="0px"
	 width="42px" height="40px" viewBox="0 0 42 40" enable-background="new 0 0 42 40" xml:space="preserve">
<path fill="#010101" d="M16.928,31.272C8.697,31.272,2,24.575,2,16.344C2,8.113,8.697,1.416,16.928,1.416
	c8.232,0,14.927,6.697,14.927,14.928C31.855,24.575,25.16,31.272,16.928,31.272z M16.928,4.206c-6.693,0-12.138,5.445-12.138,12.138
	c0,6.695,5.445,12.139,12.138,12.139c6.693,0,12.137-5.444,12.137-12.139C29.065,9.651,23.621,4.206,16.928,4.206z"/>
<rect x="23.609" y="29.601" transform="matrix(-0.707 -0.7072 0.7072 -0.707 32.781 76.035)" fill="#010101" width="17.06" height="3.254"/>
</svg>
